<svg width="682.667" height="682.667" viewBox="0 0 512 512" xmlns="http://www.w3.org/2000/svg" xmlns:xlink="http://www.w3.org/1999/xlink" overflow="hidden"><path d="M256 0C114.637 0 0 114.637 0 256 0 397.363 114.637 512 256 512 397.363 512 512 397.363 512 256 512 114.637 397.363 0 256 0ZM181.609 387 119.262 387 119.262 199.426 181.609 199.426ZM150.438 173.813 150.031 173.813C129.109 173.813 115.578 159.41 115.578 141.41 115.578 123.004 129.523 109 150.852 109 172.18 109 185.305 123.004 185.711 141.41 185.711 159.41 172.18 173.813 150.438 173.813ZM406.422 387 344.082 387 344.082 286.652C344.082 261.434 335.055 244.234 312.496 244.234 295.273 244.234 285.016 255.836 280.508 267.035 278.859 271.043 278.457 276.645 278.457 282.25L278.457 387 216.113 387C216.113 387 216.93 217.023 216.113 199.426L278.457 199.426 278.457 225.984C286.742 213.203 301.566 195.023 334.645 195.023 375.664 195.023 406.422 221.832 406.422 279.445Z" fill="#FFFFFF"/></svg>